<?xml version="1.0" encoding="utf-8"?>
<!-- Generator: Adobe Illustrator 14.0.0, SVG Export Plug-In . SVG Version: 6.00 Build 43363)  -->
<!DOCTYPE svg PUBLIC "-//W3C//DTD SVG 1.1//EN" "http://www.w3.org/Graphics/SVG/1.1/DTD/svg11.dtd">
<svg version="1.1" id="Layer_1" xmlns="http://www.w3.org/2000/svg" xmlns:xlink="http://www.w3.org/1999/xlink" x="0px" y="0px"
	 width="30px" height="150px" viewBox="0 -30 30 150" enable-background="new 0 -30 30 150" xml:space="preserve">
<g id="Layer_2">
</g>
<polygon fill="#FFFFFF" points="18.5,42.5 15,46 11.5,42.5 10.1,42.5 15,47.5 19.9,42.5 "/>
<polygon fill="#FFFFFF" points="11.5,77.5 15,74 18.5,77.5 19.9,77.5 15,72.5 10.1,77.5 "/>
<polygon fill="#FFFFFF" points="19.9,100.8 18.5,100.8 15,104.3 11.5,100.8 10.1,100.8 14.3,105 10.1,109.2 11.5,109.2 15,105.7 
	18.5,109.2 19.9,109.2 15.7,105 "/>
<polygon fill="#FFFFFF" points="13.5,-18.5 17,-15 13.5,-11.5 13.5,-10.1 18.5,-15 13.5,-19.9 "/>
<polygon fill="#FFFFFF" points="16.5,18.5 13,15 16.5,11.5 16.5,10.1 11.5,15 16.5,19.9 "/>
</svg>
