<?xml version="1.0" encoding="utf-8"?>
<!-- Generator: Adobe Illustrator 14.0.0, SVG Export Plug-In . SVG Version: 6.00 Build 43363)  -->
<!DOCTYPE svg PUBLIC "-//W3C//DTD SVG 1.1//EN" "http://www.w3.org/Graphics/SVG/1.1/DTD/svg11.dtd">
<svg version="1.1" id="Layer_1" xmlns="http://www.w3.org/2000/svg" xmlns:xlink="http://www.w3.org/1999/xlink" x="0px" y="0px"
	 width="30px" height="50px" viewBox="0 0 30 50" enable-background="new 0 0 30 50" xml:space="preserve">
<g id="Layer_1_1_" display="none">
	<polygon display="inline" points="19.375,13.776 19.375,14.776 29,14.776 29,42.775 1,42.775 1,14.776 10.625,14.776 
		10.625,13.776 0,13.776 0,43.775 30,43.775 30,13.776 	"/>
	<g display="inline">
		<polygon points="20.496,11.211 15.053,6.276 15.005,6.224 15,6.229 14.995,6.224 14.947,6.276 9.504,11.211 10.176,11.951 
			14.5,8.031 14.5,26.9 15.5,26.9 15.5,8.03 19.824,11.951 		"/>
	</g>
	<g display="inline">
		<path d="M29,14.776v28H1v-28H29 M30,13.776H0v30h30V13.776L30,13.776z"/>
		<g>
			<polygon points="23.75,24.86 6.25,24.86 6.25,23.86 23.75,23.86 			"/>
			<polygon points="23.75,33.693 6.25,33.693 6.25,32.693 23.75,32.693 			"/>
			<polygon points="23.75,29.275 6.25,29.275 6.25,28.275 23.75,28.275 			"/>
		</g>
	</g>
</g>
<g id="Layer_2" display="none">
	<g display="inline">
		<path d="M29,14.776v28H1v-28H29 M30,13.776H0v30h30V13.776L30,13.776z"/>
		<path d="M23.59,36.658l-5.746-5.747c2.188-2.552,2.078-6.405-0.336-8.82c-1.229-1.228-2.86-1.904-4.597-1.904
			c-1.737,0-3.369,0.676-4.596,1.904s-1.904,2.86-1.904,4.597s0.676,3.369,1.904,4.597s2.86,1.903,4.596,1.903
			c1.568,0,3.048-0.557,4.226-1.566l5.746,5.745L23.59,36.658z M9.022,30.576c-1.039-1.039-1.611-2.42-1.611-3.889
			c0-1.471,0.572-2.852,1.611-3.891s2.42-1.611,3.889-1.611c1.469,0,2.851,0.572,3.89,1.611c2.145,2.144,2.145,5.635,0,7.778
			c-1.039,1.038-2.42,1.61-3.89,1.61C11.441,32.186,10.061,31.613,9.022,30.576z"/>
	</g>
</g>
<g id="Layer_3">
	<g>
		<path fill="#FFFFFF" d="M29,14.776v28H1v-28H29 M30,13.776H0v30h30V13.776L30,13.776z"/>
	</g>
</g>
<polygon display="none" points="29.976,18.573 29.371,17.776 15,28.678 0.629,17.776 0.025,18.573 15,29.934 "/>
<polygon display="none" points="2,17.657 2,18.913 15,28.775 28,18.913 28,17.658 15,27.52 "/>
<polygon fill="#FFFFFF" points="2,20.157 2,21.413 15,31.275 28,21.413 28,20.158 15,30.02 "/>
<path d="M43.834,25.458"/>
</svg>
