<?xml version="1.0" encoding="utf-8"?>
<!-- Generator: Adobe Illustrator 14.0.0, SVG Export Plug-In . SVG Version: 6.00 Build 43363)  -->
<!DOCTYPE svg PUBLIC "-//W3C//DTD SVG 1.1//EN" "http://www.w3.org/Graphics/SVG/1.1/DTD/svg11.dtd">
<svg version="1.1" id="Layer_1" xmlns="http://www.w3.org/2000/svg" xmlns:xlink="http://www.w3.org/1999/xlink" x="0px" y="0px"
	 width="30px" height="50px" viewBox="0 0 30 50" enable-background="new 0 0 30 50" xml:space="preserve">
<polygon display="none" points="19.375,13.776 19.375,14.776 29,14.776 29,42.775 1,42.775 1,14.776 10.625,14.776 10.625,13.776 
	0,13.776 0,43.775 30,43.775 30,13.776 "/>
<g display="none">
	<polygon display="inline" points="20.496,11.211 15.053,6.276 15.005,6.224 15,6.229 14.995,6.224 14.947,6.276 9.504,11.211 
		10.176,11.951 14.5,8.031 14.5,26.9 15.5,26.9 15.5,8.03 19.824,11.951 	"/>
</g>
<g display="none">
	<path display="inline" fill="#FFFFFF" d="M29,14.776v28H1v-28H29 M30,13.776H0v30h30V13.776L30,13.776z"/>
	<g display="inline">
		<polygon fill="#FFFFFF" points="23.75,24.86 6.25,24.86 6.25,23.86 23.75,23.86 		"/>
		<polygon fill="#FFFFFF" points="23.75,33.693 6.25,33.693 6.25,32.693 23.75,32.693 		"/>
		<polygon fill="#FFFFFF" points="23.75,29.275 6.25,29.275 6.25,28.275 23.75,28.275 		"/>
	</g>
</g>
<g>
	<path display="none" fill="#FFFFFF" d="M29,14.776v28H1v-28H29 M30,13.776H0v30h30V13.776L30,13.776z"/>
	<g>
		<polygon fill="#FFFFFF" points="23.75,24.86 6.25,24.86 6.25,23.86 23.75,23.86 		"/>
		<polygon fill="#FFFFFF" points="23.75,33.693 6.25,33.693 6.25,32.693 23.75,32.693 		"/>
		<polygon fill="#FFFFFF" points="23.75,29.275 6.25,29.275 6.25,28.275 23.75,28.275 		"/>
	</g>
</g>
</svg>
